<svg width="188" height="44" viewBox="0 0 188 44" fill="none" xmlns="http://www.w3.org/2000/svg">
<g filter="url(#filter0_d)">
<path d="M6.646 14.866H4.36V1.114H11.866V3.04H6.646V14.866ZM25.834 9.484C25.078 8.584 24.334 7.78 23.602 7.072V13.03C24.43 12.022 25.174 10.84 25.834 9.484ZM17.374 8.71H16.204V9.754H17.374V8.71ZM17.374 6.154H16.204V7.216H17.374V6.154ZM17.374 4.66V3.616H16.204V4.66H17.374ZM23.602 14.686H30.424V16.666H23.602V17.62H21.316V1.906H30.316V3.886H23.602V6.226L24.628 4.966C25.408 5.722 26.128 6.478 26.788 7.234C27.148 6.238 27.424 5.182 27.616 4.066L29.758 4.624C29.446 6.124 28.972 7.642 28.336 9.178C28.84 9.85 29.5 10.846 30.316 12.166L29.038 13.966C28.438 12.994 27.856 12.124 27.292 11.356C26.608 12.64 25.888 13.72 25.132 14.596L23.602 13.426V14.686ZM13.27 16.612C13.618 15.004 13.84 13.45 13.936 11.95L15.196 12.13C15.124 13.738 14.92 15.364 14.584 17.008L13.27 16.612ZM15.682 16.594C15.658 15.574 15.58 14.11 15.448 12.202L16.546 12.04C16.702 13.708 16.804 15.178 16.852 16.45L15.682 16.594ZM18.724 14.722C18.664 14.266 18.502 13.378 18.238 12.058L19.174 11.878V11.536H13.99V1.744H20.794V3.616H19.39V4.66H20.56V6.154H19.39V7.216H20.524V8.71H19.39V9.754H20.92V11.554C20.92 13.354 20.86 14.68 20.74 15.532C20.632 16.372 20.464 16.924 20.236 17.188C20.02 17.452 19.666 17.584 19.174 17.584C18.802 17.584 18.322 17.548 17.734 17.476L17.644 15.766L17.302 15.82C17.23 14.992 17.08 13.768 16.852 12.148L17.914 11.95C18.118 13.222 18.28 14.434 18.4 15.586C18.508 15.598 18.628 15.604 18.76 15.604C18.856 15.604 18.922 15.592 18.958 15.568C18.994 15.544 19.03 15.466 19.066 15.334C19.102 15.19 19.126 14.962 19.138 14.65L18.724 14.722ZM37.714 5.254H43.114V1.906H45.4V5.254H48.046V7.306H45.4V9.466C45.4 11.926 45.04 13.654 44.32 14.65C43.612 15.646 42.196 16.414 40.072 16.954L39.316 14.92C39.928 14.752 40.408 14.608 40.756 14.488C41.104 14.356 41.44 14.188 41.764 13.984C42.088 13.78 42.322 13.57 42.466 13.354C42.61 13.138 42.736 12.838 42.844 12.454C42.964 12.07 43.036 11.656 43.06 11.212C43.096 10.756 43.114 10.174 43.114 9.466V7.306H37.714V5.254ZM36.058 2.338C35.482 4.534 35.194 6.928 35.194 9.52C35.194 12.112 35.482 14.506 36.058 16.702L33.7 16.972C33.1 14.68 32.8 12.196 32.8 9.52C32.8 6.844 33.1 4.36 33.7 2.068L36.058 2.338ZM53.644 2.806V7.054H56.776V1.294H59.206V7.054H62.356V2.806H64.66V9.034H59.206V14.506H63.094V10.294H65.434V17.566H63.094V16.54H52.906V17.566H50.566V10.294H52.906V14.506H56.776V9.034H51.34V2.806H53.644ZM70.546 2.014L72.994 2.086C72.838 4.894 72.76 7.552 72.76 10.06C72.76 11.356 72.862 12.346 73.066 13.03C73.282 13.702 73.588 14.158 73.984 14.398C74.38 14.626 74.95 14.74 75.694 14.74C77.974 14.74 79.798 13.012 81.166 9.556L83.308 10.384C81.664 14.812 79.126 17.026 75.694 17.026C73.654 17.026 72.244 16.534 71.464 15.55C70.684 14.554 70.294 12.724 70.294 10.06C70.294 7.492 70.378 4.81 70.546 2.014ZM87.466 3.166H100.534V5.326H95.26V13.714H101.074V15.874H86.926V13.714H92.74V5.326H87.466V3.166ZM105.304 4.66L106.456 2.5C108.268 3.364 110.128 4.33 112.036 5.398L110.83 7.522C109.222 6.622 107.38 5.668 105.304 4.66ZM117.454 4.228L119.74 4.732C119.104 8.296 117.664 11.038 115.42 12.958C113.176 14.878 110.056 16.012 106.06 16.36L105.7 14.02C109.18 13.684 111.85 12.736 113.71 11.176C115.582 9.604 116.83 7.288 117.454 4.228ZM135.238 4.966L137.524 5.362C136.828 9.154 135.43 11.932 133.33 13.696C131.23 15.46 128.08 16.528 123.88 16.9L123.52 14.614C127.264 14.29 130 13.42 131.728 12.004C133.456 10.588 134.626 8.242 135.238 4.966ZM136.048 3.796L134.356 4.606C133.972 3.814 133.516 2.944 132.988 1.996L134.68 1.15C135.172 2.074 135.628 2.956 136.048 3.796ZM138.82 3.58L137.092 4.408C136.444 3.16 135.976 2.272 135.688 1.744L137.416 0.879999C137.968 1.888 138.436 2.788 138.82 3.58ZM123.232 6.694C124.804 6.958 126.784 7.342 129.172 7.846L128.722 9.97C126.574 9.514 124.6 9.136 122.8 8.836L123.232 6.694ZM124.078 2.32C125.986 2.632 128.026 3.01 130.198 3.454L129.748 5.614C127.576 5.17 125.536 4.792 123.628 4.48L124.078 2.32ZM142.006 5.506V3.166H153.994V5.506H142.006ZM140.746 15.874V13.534H155.254V15.874H140.746ZM159.034 5.02V2.914H173.614V5.02C173.266 6.196 172.66 7.318 171.796 8.386C170.944 9.442 169.942 10.3 168.79 10.96L167.386 9.106C169.282 7.966 170.5 6.604 171.04 5.02H159.034ZM163.714 6.46H166.126C166.126 8.56 165.964 10.258 165.64 11.554C165.328 12.85 164.824 13.906 164.128 14.722C163.432 15.526 162.442 16.228 161.158 16.828L159.916 14.902C161.392 14.206 162.394 13.282 162.922 12.13C163.45 10.966 163.714 9.076 163.714 6.46ZM181.354 4.174H183.64V17.926H176.134V16H181.354V4.174ZM44.032 33.004L44.164 34.36C43.108 34.52 42.068 34.6 41.044 34.6C39.54 34.6 38.456 34.42 37.792 34.06C37.128 33.708 36.796 33.156 36.796 32.404C36.796 31.804 37.072 31.252 37.624 30.748C38.184 30.236 39.024 29.8 40.144 29.44C39.96 29.048 39.62 28.852 39.124 28.852C38.276 28.852 37.272 29.664 36.112 31.288L34.852 30.532C35.788 29.228 36.52 27.996 37.048 26.836H34.996V25.564H37.576C37.736 25.14 37.892 24.696 38.044 24.232L39.592 24.52C39.496 24.808 39.368 25.156 39.208 25.564H44.2V26.836H38.692C38.596 27.06 38.444 27.396 38.236 27.844L38.248 27.868C38.688 27.692 39.1 27.604 39.484 27.604C40.556 27.604 41.28 28.084 41.656 29.044C42.512 28.868 43.36 28.732 44.2 28.636L44.32 29.956C43.616 30.036 42.832 30.164 41.968 30.34C42.04 30.868 42.076 31.488 42.076 32.2H40.48C40.48 31.584 40.464 31.1 40.432 30.748C39.776 30.964 39.272 31.204 38.92 31.468C38.576 31.724 38.404 31.98 38.404 32.236C38.404 32.46 38.464 32.644 38.584 32.788C38.704 32.924 38.964 33.04 39.364 33.136C39.764 33.232 40.324 33.28 41.044 33.28C41.86 33.28 42.856 33.188 44.032 33.004ZM49.276 29.596V30.388H54.724V29.596H49.276ZM49.276 27.7V28.492H54.724V27.7H49.276ZM49.276 26.584H54.724V25.804H49.276V26.584ZM54.424 33.652C54.456 33.652 54.512 33.656 54.592 33.664C54.672 33.664 54.728 33.664 54.76 33.664C54.808 33.664 54.868 33.664 54.94 33.664C55.02 33.656 55.08 33.652 55.12 33.652C55.288 33.644 55.404 33.632 55.468 33.616C55.54 33.6 55.604 33.532 55.66 33.412C55.716 33.284 55.748 33.132 55.756 32.956C55.772 32.772 55.788 32.464 55.804 32.032L57.316 32.2C57.292 32.696 57.268 33.068 57.244 33.316C57.228 33.564 57.184 33.808 57.112 34.048C57.04 34.296 56.972 34.46 56.908 34.54C56.844 34.628 56.716 34.708 56.524 34.78C56.34 34.86 56.16 34.904 55.984 34.912C55.808 34.92 55.536 34.928 55.168 34.936H54.604H54.064C53.32 34.92 52.856 34.856 52.672 34.744C52.488 34.64 52.396 34.388 52.396 33.988V31.66H51.46C51.18 33.468 49.704 34.62 47.032 35.116L46.588 33.76C47.588 33.584 48.348 33.324 48.868 32.98C49.388 32.628 49.708 32.188 49.828 31.66H49.276H47.68V24.496H56.32V31.66H54.004V33.256C54.004 33.44 54.024 33.552 54.064 33.592C54.104 33.624 54.224 33.644 54.424 33.652ZM59.296 28L58.948 26.476C61.396 25.892 63.228 25.6 64.444 25.6C67.508 25.6 69.04 26.88 69.04 29.44C69.04 32.64 66.428 34.24 61.204 34.24L61.084 32.716C63.284 32.716 64.872 32.46 65.848 31.948C66.832 31.428 67.324 30.644 67.324 29.596C67.324 28.756 67.08 28.14 66.592 27.748C66.104 27.356 65.332 27.16 64.276 27.16C63.268 27.16 61.608 27.44 59.296 28ZM74.476 26.836H78.076V24.604H79.6V26.836H81.364V28.204H79.6V29.644C79.6 31.284 79.36 32.436 78.88 33.1C78.408 33.764 77.464 34.276 76.048 34.636L75.544 33.28C75.952 33.168 76.272 33.072 76.504 32.992C76.736 32.904 76.96 32.792 77.176 32.656C77.392 32.52 77.548 32.38 77.644 32.236C77.74 32.092 77.824 31.892 77.896 31.636C77.976 31.38 78.024 31.104 78.04 30.808C78.064 30.504 78.076 30.116 78.076 29.644V28.204H74.476V26.836ZM73.372 24.892C72.988 26.356 72.796 27.952 72.796 29.68C72.796 31.408 72.988 33.004 73.372 34.468L71.8 34.648C71.4 33.12 71.2 31.464 71.2 29.68C71.2 27.896 71.4 26.24 71.8 24.712L73.372 24.892ZM89.692 33.124C90.548 32.788 90.976 32.168 90.976 31.264C90.976 30.712 90.78 30.296 90.388 30.016C90.004 29.736 89.388 29.596 88.54 29.596C87.7 29.596 86.908 29.692 86.164 29.884C85.428 30.068 84.612 30.384 83.716 30.832L83.164 29.728L88.768 26.332V26.32H83.98V25H91.624L91.636 26.356L87.7 28.54L87.712 28.552C88.24 28.448 88.728 28.396 89.176 28.396C90.32 28.396 91.184 28.632 91.768 29.104C92.36 29.576 92.656 30.248 92.656 31.12C92.656 32.256 92.244 33.136 91.42 33.76C90.596 34.376 89.424 34.684 87.904 34.684C86.712 34.684 85.82 34.5 85.228 34.132C84.636 33.772 84.34 33.248 84.34 32.56C84.34 32.032 84.592 31.588 85.096 31.228C85.6 30.86 86.296 30.676 87.184 30.676C88.096 30.676 88.756 30.828 89.164 31.132C89.572 31.436 89.776 31.884 89.776 32.476C89.776 32.692 89.748 32.908 89.692 33.124ZM88.216 33.388C88.352 33.092 88.42 32.844 88.42 32.644C88.42 32.396 88.324 32.208 88.132 32.08C87.94 31.944 87.596 31.876 87.1 31.876C86.7 31.876 86.392 31.944 86.176 32.08C85.968 32.208 85.864 32.368 85.864 32.56C85.864 33.12 86.544 33.4 87.904 33.4C87.936 33.4 87.988 33.4 88.06 33.4C88.132 33.392 88.184 33.388 88.216 33.388ZM98.08 24.94C99.44 24.94 100.752 24.876 102.016 24.748C103.288 24.612 104.32 24.436 105.112 24.22L105.412 25.54C103.652 26.02 101.248 26.26 98.2 26.26L98.08 24.94ZM102.58 28.276L101.188 28.744C100.98 28.088 100.72 27.396 100.408 26.668L101.8 26.188C102.064 26.764 102.324 27.46 102.58 28.276ZM103.06 28.756C103.516 27.852 103.876 26.932 104.14 25.996L105.544 26.416C105.272 27.4 104.896 28.364 104.416 29.308L103.06 28.756ZM100.744 28.816H102.34V29.68H105.52V31H102.892C103.604 31.952 104.56 32.848 105.76 33.688L104.92 34.876C103.944 34.172 103.084 33.332 102.34 32.356V35.056H100.744V32.44C100.008 33.36 99.14 34.172 98.14 34.876L97.336 33.688C98.544 32.904 99.52 32.008 100.264 31H97.876V30.532C97.588 30.628 97.364 30.7 97.204 30.748V33.076C97.204 33.468 97.192 33.772 97.168 33.988C97.152 34.196 97.12 34.38 97.072 34.54C97.024 34.7 96.94 34.812 96.82 34.876C96.7 34.94 96.56 34.984 96.4 35.008C96.248 35.032 96.028 35.044 95.74 35.044C95.58 35.044 95.192 35.024 94.576 34.984L94.504 33.7C95.04 33.74 95.38 33.76 95.524 33.76C95.612 33.76 95.664 33.736 95.68 33.688C95.696 33.64 95.704 33.476 95.704 33.196V31.156C95.056 31.308 94.66 31.396 94.516 31.42L94.408 30.016C94.92 29.928 95.352 29.84 95.704 29.752V27.496H94.42V26.176H95.704V24.244H97.204V26.176H98.116V26.836L99.22 26.452C99.548 27.148 99.848 27.928 100.12 28.792L98.74 29.26C98.492 28.524 98.276 27.936 98.092 27.496H97.204V29.344C97.492 29.264 97.804 29.16 98.14 29.032L98.236 29.68H100.744V28.816ZM111.316 28.6H109.024V29.56C109.024 29.928 109.02 30.196 109.012 30.364H111.316V28.6ZM112.84 28.6V30.364H115.456V28.6H112.84ZM111.316 27.376V25.744H109.024V27.376H111.316ZM112.84 27.376H115.456V25.744H112.84V27.376ZM107.464 24.436H117.016V33.16C117.016 33.648 117 34.004 116.968 34.228C116.944 34.46 116.86 34.652 116.716 34.804C116.572 34.956 116.392 35.044 116.176 35.068C115.968 35.1 115.636 35.116 115.18 35.116C114.98 35.116 114.46 35.096 113.62 35.056L113.536 33.736C114.32 33.776 114.776 33.796 114.904 33.796C115.168 33.796 115.324 33.772 115.372 33.724C115.428 33.668 115.456 33.508 115.456 33.244V31.576H112.84V34.84H111.316V31.576H108.916C108.748 32.992 108.3 34.2 107.572 35.2L106.264 34.156C106.72 33.484 107.032 32.784 107.2 32.056C107.376 31.32 107.464 30.26 107.464 28.876V24.436ZM118.756 26.644H120.724V24.604H122.284V26.644H125.644V24.604H127.276V26.644H129.244V28.084H127.276V28.756C127.276 30.676 126.832 32.08 125.944 32.968C125.056 33.848 123.544 34.38 121.408 34.564L121.108 33.124C122.884 32.948 124.084 32.56 124.708 31.96C125.332 31.352 125.644 30.284 125.644 28.756V28.084H122.284V30.52H120.724V28.084H118.756V26.644ZM131.032 29.2C132.728 28.968 134.376 28.472 135.976 27.712C137.584 26.944 138.928 26.02 140.008 24.94L140.992 26.068C140.048 27.004 138.892 27.844 137.524 28.588V34.6H135.796V29.416C134.316 30.04 132.812 30.46 131.284 30.676L131.032 29.2ZM144.724 24.724H146.404V28.084C148.484 28.588 150.66 29.256 152.932 30.088L152.428 31.6C150.428 30.856 148.42 30.232 146.404 29.728V34.636H144.724V24.724Z" fill="white"/>
</g>
<defs>
<filter id="filter0_d" x="0.360001" y="0.879999" width="187.28" height="42.32" filterUnits="userSpaceOnUse" color-interpolation-filters="sRGB">
<feFlood flood-opacity="0" result="BackgroundImageFix"/>
<feColorMatrix in="SourceAlpha" type="matrix" values="0 0 0 0 0 0 0 0 0 0 0 0 0 0 0 0 0 0 127 0"/>
<feOffset dy="4"/>
<feGaussianBlur stdDeviation="2"/>
<feColorMatrix type="matrix" values="0 0 0 0 0 0 0 0 0 0 0 0 0 0 0 0 0 0 0.25 0"/>
<feBlend mode="normal" in2="BackgroundImageFix" result="effect1_dropShadow"/>
<feBlend mode="normal" in="SourceGraphic" in2="effect1_dropShadow" result="shape"/>
</filter>
</defs>
</svg>
