<svg width="251" height="82" viewBox="0 0 251 82" fill="none" xmlns="http://www.w3.org/2000/svg">
<path d="M102.54 55.3599C100.812 55.3599 99.2762 55.1439 97.9322 54.7119C96.5882 54.2799 95.3282 53.5479 94.1522 52.5159C93.5042 51.9399 93.1802 51.3039 93.1802 50.6079C93.1802 50.0559 93.3842 49.5759 93.7922 49.1679C94.2002 48.7359 94.6922 48.5199 95.2682 48.5199C95.7242 48.5199 96.1322 48.6639 96.4922 48.9519C97.4522 49.7439 98.3882 50.3199 99.3002 50.6799C100.212 51.0399 101.292 51.2199 102.54 51.2199C103.884 51.2199 105.036 50.9199 105.996 50.3199C106.98 49.7199 107.472 48.9759 107.472 48.0879C107.472 47.0079 106.992 46.1679 106.032 45.5679C105.072 44.9439 103.548 44.4759 101.46 44.1639C96.2042 43.3959 93.5762 40.9479 93.5762 36.8199C93.5762 35.3079 93.9722 33.9999 94.7642 32.8959C95.5562 31.7679 96.6362 30.9159 98.0042 30.3399C99.3722 29.7399 100.896 29.4399 102.576 29.4399C104.088 29.4399 105.504 29.6679 106.824 30.1239C108.168 30.5799 109.284 31.1799 110.172 31.9239C110.868 32.4759 111.216 33.1119 111.216 33.8319C111.216 34.3839 111.012 34.8759 110.604 35.3079C110.196 35.7159 109.716 35.9199 109.164 35.9199C108.804 35.9199 108.48 35.8119 108.192 35.5959C107.568 35.0919 106.692 34.6359 105.564 34.2279C104.46 33.7959 103.464 33.5799 102.576 33.5799C101.064 33.5799 99.8882 33.8679 99.0482 34.4439C98.2322 34.9959 97.8242 35.7279 97.8242 36.6399C97.8242 37.6719 98.2442 38.4519 99.0842 38.9799C99.9482 39.5079 101.292 39.9399 103.116 40.2759C105.18 40.6359 106.824 41.1039 108.048 41.6799C109.296 42.2319 110.232 42.9999 110.856 43.9839C111.48 44.9439 111.792 46.2279 111.792 47.8359C111.792 49.3479 111.36 50.6799 110.496 51.8319C109.656 52.9599 108.528 53.8359 107.112 54.4599C105.696 55.0599 104.172 55.3599 102.54 55.3599ZM132.481 29.7999C133.129 29.7999 133.657 29.9919 134.065 30.3759C134.473 30.7599 134.677 31.2639 134.677 31.8879C134.677 32.5119 134.473 33.0159 134.065 33.3999C133.657 33.7599 133.129 33.9399 132.481 33.9399H126.829V52.8039C126.829 53.4279 126.601 53.9559 126.145 54.3879C125.689 54.7959 125.125 54.9999 124.453 54.9999C123.781 54.9999 123.229 54.7959 122.797 54.3879C122.365 53.9559 122.149 53.4279 122.149 52.8039V33.9399H116.497C115.849 33.9399 115.321 33.7479 114.913 33.3639C114.505 32.9799 114.301 32.4759 114.301 31.8519C114.301 31.2519 114.505 30.7599 114.913 30.3759C115.345 29.9919 115.873 29.7999 116.497 29.7999H132.481ZM156.348 29.7639C156.972 29.7639 157.476 29.9679 157.86 30.3759C158.244 30.7839 158.436 31.3119 158.436 31.9599V44.9919C158.436 46.9839 158.016 48.7479 157.176 50.2839C156.336 51.8199 155.16 53.0199 153.648 53.8839C152.136 54.7479 150.408 55.1799 148.464 55.1799C146.52 55.1799 144.78 54.7479 143.244 53.8839C141.732 53.0199 140.556 51.8199 139.716 50.2839C138.876 48.7479 138.456 46.9839 138.456 44.9919V31.9599C138.456 31.3359 138.672 30.8199 139.104 30.4119C139.536 29.9799 140.088 29.7639 140.76 29.7639C141.336 29.7639 141.84 29.9799 142.272 30.4119C142.704 30.8199 142.92 31.3359 142.92 31.9599V44.9919C142.92 46.1439 143.172 47.1759 143.676 48.0879C144.18 48.9759 144.852 49.6599 145.692 50.1399C146.556 50.6199 147.48 50.8599 148.464 50.8599C149.496 50.8599 150.456 50.6199 151.344 50.1399C152.256 49.6599 152.976 48.9759 153.504 48.0879C154.056 47.1759 154.332 46.1439 154.332 44.9919V31.9599C154.332 31.3119 154.512 30.7839 154.872 30.3759C155.232 29.9679 155.724 29.7639 156.348 29.7639ZM174.639 29.7999C176.895 29.7999 178.827 30.3639 180.435 31.4919C182.067 32.5959 183.303 34.1079 184.143 36.0279C185.007 37.9239 185.439 40.0479 185.439 42.3999C185.439 44.7519 185.007 46.8879 184.143 48.8079C183.303 50.7039 182.067 52.2159 180.435 53.3439C178.827 54.4479 176.895 54.9999 174.639 54.9999H166.035C165.411 54.9999 164.883 54.7959 164.451 54.3879C164.043 53.9559 163.839 53.4279 163.839 52.8039V31.9959C163.839 31.3719 164.043 30.8559 164.451 30.4479C164.883 30.0159 165.411 29.7999 166.035 29.7999H174.639ZM174.279 50.8599C176.439 50.8599 178.059 50.0679 179.139 48.4839C180.219 46.8759 180.759 44.8479 180.759 42.3999C180.759 39.9519 180.207 37.9359 179.103 36.3519C178.023 34.7439 176.415 33.9399 174.279 33.9399H168.339V50.8599H174.279ZM193.281 52.8039C193.281 53.4279 193.077 53.9559 192.669 54.3879C192.261 54.7959 191.745 54.9999 191.121 54.9999C190.497 54.9999 189.981 54.7959 189.573 54.3879C189.165 53.9559 188.961 53.4279 188.961 52.8039V37.9359C188.961 37.3119 189.165 36.7959 189.573 36.3879C189.981 35.9559 190.497 35.7399 191.121 35.7399C191.745 35.7399 192.261 35.9559 192.669 36.3879C193.077 36.7959 193.281 37.3119 193.281 37.9359V52.8039ZM191.085 33.3999C190.269 33.3999 189.693 33.2679 189.357 33.0039C189.021 32.7399 188.853 32.2719 188.853 31.5999V30.9159C188.853 30.2439 189.033 29.7759 189.393 29.5119C189.753 29.2479 190.329 29.1159 191.121 29.1159C191.961 29.1159 192.549 29.2479 192.885 29.5119C193.221 29.7759 193.389 30.2439 193.389 30.9159V31.5999C193.389 32.2959 193.209 32.7759 192.849 33.0399C192.513 33.2799 191.925 33.3999 191.085 33.3999ZM215.973 29.7639C216.597 29.7639 217.101 29.9679 217.485 30.3759C217.869 30.7839 218.061 31.3119 218.061 31.9599V44.9919C218.061 46.9839 217.641 48.7479 216.801 50.2839C215.961 51.8199 214.785 53.0199 213.273 53.8839C211.761 54.7479 210.033 55.1799 208.089 55.1799C206.145 55.1799 204.405 54.7479 202.869 53.8839C201.357 53.0199 200.181 51.8199 199.341 50.2839C198.501 48.7479 198.081 46.9839 198.081 44.9919V31.9599C198.081 31.3359 198.297 30.8199 198.729 30.4119C199.161 29.9799 199.713 29.7639 200.385 29.7639C200.961 29.7639 201.465 29.9799 201.897 30.4119C202.329 30.8199 202.545 31.3359 202.545 31.9599V44.9919C202.545 46.1439 202.797 47.1759 203.301 48.0879C203.805 48.9759 204.477 49.6599 205.317 50.1399C206.181 50.6199 207.105 50.8599 208.089 50.8599C209.121 50.8599 210.081 50.6199 210.969 50.1399C211.881 49.6599 212.601 48.9759 213.129 48.0879C213.681 47.1759 213.957 46.1439 213.957 44.9919V31.9599C213.957 31.3119 214.137 30.7839 214.497 30.3759C214.857 29.9679 215.349 29.7639 215.973 29.7639ZM245.316 29.7639C245.916 29.7639 246.432 29.9799 246.864 30.4119C247.32 30.8199 247.548 31.3359 247.548 31.9599V52.8039C247.548 53.4279 247.344 53.9559 246.936 54.3879C246.528 54.7959 245.988 54.9999 245.316 54.9999C244.644 54.9999 244.092 54.7959 243.66 54.3879C243.252 53.9799 243.048 53.4519 243.048 52.8039V38.2959L237.108 47.3679C236.868 47.6559 236.592 47.8959 236.28 48.0879C235.968 48.2559 235.644 48.3279 235.308 48.3039C234.996 48.3279 234.684 48.2559 234.372 48.0879C234.06 47.8959 233.784 47.6559 233.544 47.3679L227.604 37.9719V52.8039C227.604 53.4519 227.412 53.9799 227.028 54.3879C226.644 54.7959 226.14 54.9999 225.516 54.9999C224.916 54.9999 224.424 54.7959 224.04 54.3879C223.656 53.9559 223.464 53.4279 223.464 52.8039V31.9599C223.464 31.3599 223.68 30.8439 224.112 30.4119C224.568 29.9799 225.108 29.7639 225.732 29.7639C226.092 29.7639 226.452 29.8599 226.812 30.0519C227.172 30.2199 227.448 30.4479 227.64 30.7359L235.488 42.7959L243.552 30.7359C243.744 30.4479 243.996 30.2199 244.308 30.0519C244.644 29.8599 244.98 29.7639 245.316 29.7639Z" fill="white"/>
<circle cx="191" cy="30.9999" r="3" fill="#E67E22"/>
<path d="M55.038 32.5442L2.12658 7.35682L15.2911 1L81.8734 32.5442L28.7089 57.7316V45.1379L55.038 32.5442Z" fill="#C4C4C4" stroke="#C4C4C4"/>
<path d="M54.6582 32.5442L2 7.35683V74.6432L15.2911 80.8801V30.5053L37.3165 40.8201L54.6582 32.5442Z" fill="#7F8C8D" stroke="#7F8C8D"/>
<path d="M28.5823 36.8621L15.4177 30.7451V81L82 49.4558V32.6642L28.5823 57.9715V36.8621Z" fill="black" stroke="black"/>
</svg>
