<svg width="251" height="82" viewBox="0 0 251 82" fill="none" xmlns="http://www.w3.org/2000/svg">
<path d="M98.2666 52.9999C97.1866 52.9999 96.2666 52.6199 95.5066 51.8599C94.7466 51.0999 94.3666 50.1799 94.3666 49.0999V47.8399H97.6066V48.6499C97.6066 49.0899 97.6766 49.3899 97.8166 49.5499C97.9766 49.6899 98.2766 49.7599 98.7166 49.7599H111.617C112.057 49.7599 112.347 49.6899 112.487 49.5499C112.627 49.3899 112.697 49.0899 112.697 48.6499V44.9299C112.697 44.4699 112.627 44.1699 112.487 44.0299C112.347 43.8899 112.057 43.8199 111.617 43.8199H98.2666C97.1866 43.8199 96.2666 43.4399 95.5066 42.6799C94.7466 41.9199 94.3666 40.9999 94.3666 39.9199V35.2999C94.3666 34.2199 94.7466 33.2999 95.5066 32.5399C96.2666 31.7799 97.1866 31.3999 98.2666 31.3999H112.067C113.147 31.3999 114.067 31.7799 114.827 32.5399C115.587 33.2999 115.967 34.2199 115.967 35.2999V36.5599H112.697V35.7499C112.697 35.3099 112.627 35.0199 112.487 34.8799C112.347 34.7199 112.057 34.6399 111.617 34.6399H98.7166C98.2766 34.6399 97.9766 34.7199 97.8166 34.8799C97.6766 35.0199 97.6066 35.3099 97.6066 35.7499V39.4699C97.6066 39.9299 97.6766 40.2299 97.8166 40.3699C97.9766 40.4899 98.2766 40.5499 98.7166 40.5499H112.067C113.147 40.5499 114.067 40.9399 114.827 41.7199C115.587 42.4799 115.967 43.3999 115.967 44.4799V49.0999C115.967 50.1799 115.587 51.0999 114.827 51.8599C114.067 52.6199 113.147 52.9999 112.067 52.9999H98.2666ZM127.313 52.9999V34.6399H118.133V31.3999H139.733V34.6399H130.583V52.9999H127.313ZM145.817 52.9999C144.737 52.9999 143.817 52.6199 143.057 51.8599C142.297 51.0999 141.917 50.1799 141.917 49.0999V31.3999H145.157V48.6499C145.157 49.0899 145.227 49.3899 145.367 49.5499C145.527 49.6899 145.827 49.7599 146.267 49.7599H159.137C159.597 49.7599 159.897 49.6899 160.037 49.5499C160.177 49.3899 160.247 49.0899 160.247 48.6499V31.3999H163.517V49.0999C163.517 50.1799 163.127 51.0999 162.347 51.8599C161.587 52.6199 160.677 52.9999 159.617 52.9999H145.817ZM166.881 52.9999V31.3999H184.551C185.631 31.3999 186.551 31.7799 187.311 32.5399C188.091 33.2999 188.481 34.2199 188.481 35.2999V49.0999C188.481 50.1799 188.091 51.0999 187.311 51.8599C186.551 52.6199 185.631 52.9999 184.551 52.9999H166.881ZM171.231 49.7599H184.101C184.541 49.7599 184.831 49.6899 184.971 49.5499C185.131 49.3899 185.211 49.0899 185.211 48.6499V35.7499C185.211 35.3099 185.131 35.0199 184.971 34.8799C184.831 34.7199 184.541 34.6399 184.101 34.6399H171.231C170.791 34.6399 170.491 34.7199 170.331 34.8799C170.191 35.0199 170.121 35.3099 170.121 35.7499V48.6499C170.121 49.0899 170.191 49.3899 170.331 49.5499C170.491 49.6899 170.791 49.7599 171.231 49.7599ZM191.603 52.9999V35.5999H194.843V52.9999H191.603ZM191.603 33.1399V29.8999H194.843V33.1399H191.603ZM202.038 52.9999C200.958 52.9999 200.038 52.6199 199.278 51.8599C198.518 51.0999 198.138 50.1799 198.138 49.0999V31.3999H201.378V48.6499C201.378 49.0899 201.448 49.3899 201.588 49.5499C201.748 49.6899 202.048 49.7599 202.488 49.7599H215.358C215.818 49.7599 216.118 49.6899 216.258 49.5499C216.398 49.3899 216.468 49.0899 216.468 48.6499V31.3999H219.738V49.0999C219.738 50.1799 219.348 51.0999 218.568 51.8599C217.808 52.6199 216.898 52.9999 215.838 52.9999H202.038ZM223.041 52.9999V31.3999H226.911L235.281 41.3599L243.621 31.3999H247.521V52.9999H244.251V35.7499L235.281 46.4299L226.281 35.7499V52.9999H223.041Z" fill="white"/>
<path d="M191 29H195V33H191V29Z" fill="#E67E22"/>
<path d="M55.038 32.5442L2.12658 7.35682L15.2911 1L81.8734 32.5442L28.7089 57.7316V45.1379L55.038 32.5442Z" fill="#C4C4C4" stroke="#C4C4C4"/>
<path d="M54.6582 32.5442L2 7.35683V74.6432L15.2911 80.8801V30.5053L37.3165 40.8201L54.6582 32.5442Z" fill="#7F8C8D" stroke="#7F8C8D"/>
<path d="M28.5823 36.8621L15.4177 30.7451V81L82 49.4558V32.6642L28.5823 57.9715V36.8621Z" fill="black" stroke="black"/>
</svg>
