<svg width="188" height="44" viewBox="0 0 188 44" fill="none" xmlns="http://www.w3.org/2000/svg">
<g filter="url(#filter0_d)">
<path d="M6.646 14.866H4.36V1.114H11.866V3.04H6.646V14.866ZM25.834 9.484C25.078 8.584 24.334 7.78 23.602 7.072V13.03C24.43 12.022 25.174 10.84 25.834 9.484ZM17.374 8.71H16.204V9.754H17.374V8.71ZM17.374 6.154H16.204V7.216H17.374V6.154ZM17.374 4.66V3.616H16.204V4.66H17.374ZM23.602 14.686H30.424V16.666H23.602V17.62H21.316V1.906H30.316V3.886H23.602V6.226L24.628 4.966C25.408 5.722 26.128 6.478 26.788 7.234C27.148 6.238 27.424 5.182 27.616 4.066L29.758 4.624C29.446 6.124 28.972 7.642 28.336 9.178C28.84 9.85 29.5 10.846 30.316 12.166L29.038 13.966C28.438 12.994 27.856 12.124 27.292 11.356C26.608 12.64 25.888 13.72 25.132 14.596L23.602 13.426V14.686ZM13.27 16.612C13.618 15.004 13.84 13.45 13.936 11.95L15.196 12.13C15.124 13.738 14.92 15.364 14.584 17.008L13.27 16.612ZM15.682 16.594C15.658 15.574 15.58 14.11 15.448 12.202L16.546 12.04C16.702 13.708 16.804 15.178 16.852 16.45L15.682 16.594ZM18.724 14.722C18.664 14.266 18.502 13.378 18.238 12.058L19.174 11.878V11.536H13.99V1.744H20.794V3.616H19.39V4.66H20.56V6.154H19.39V7.216H20.524V8.71H19.39V9.754H20.92V11.554C20.92 13.354 20.86 14.68 20.74 15.532C20.632 16.372 20.464 16.924 20.236 17.188C20.02 17.452 19.666 17.584 19.174 17.584C18.802 17.584 18.322 17.548 17.734 17.476L17.644 15.766L17.302 15.82C17.23 14.992 17.08 13.768 16.852 12.148L17.914 11.95C18.118 13.222 18.28 14.434 18.4 15.586C18.508 15.598 18.628 15.604 18.76 15.604C18.856 15.604 18.922 15.592 18.958 15.568C18.994 15.544 19.03 15.466 19.066 15.334C19.102 15.19 19.126 14.962 19.138 14.65L18.724 14.722ZM37.714 5.254H43.114V1.906H45.4V5.254H48.046V7.306H45.4V9.466C45.4 11.926 45.04 13.654 44.32 14.65C43.612 15.646 42.196 16.414 40.072 16.954L39.316 14.92C39.928 14.752 40.408 14.608 40.756 14.488C41.104 14.356 41.44 14.188 41.764 13.984C42.088 13.78 42.322 13.57 42.466 13.354C42.61 13.138 42.736 12.838 42.844 12.454C42.964 12.07 43.036 11.656 43.06 11.212C43.096 10.756 43.114 10.174 43.114 9.466V7.306H37.714V5.254ZM36.058 2.338C35.482 4.534 35.194 6.928 35.194 9.52C35.194 12.112 35.482 14.506 36.058 16.702L33.7 16.972C33.1 14.68 32.8 12.196 32.8 9.52C32.8 6.844 33.1 4.36 33.7 2.068L36.058 2.338ZM53.644 2.806V7.054H56.776V1.294H59.206V7.054H62.356V2.806H64.66V9.034H59.206V14.506H63.094V10.294H65.434V17.566H63.094V16.54H52.906V17.566H50.566V10.294H52.906V14.506H56.776V9.034H51.34V2.806H53.644ZM70.546 2.014L72.994 2.086C72.838 4.894 72.76 7.552 72.76 10.06C72.76 11.356 72.862 12.346 73.066 13.03C73.282 13.702 73.588 14.158 73.984 14.398C74.38 14.626 74.95 14.74 75.694 14.74C77.974 14.74 79.798 13.012 81.166 9.556L83.308 10.384C81.664 14.812 79.126 17.026 75.694 17.026C73.654 17.026 72.244 16.534 71.464 15.55C70.684 14.554 70.294 12.724 70.294 10.06C70.294 7.492 70.378 4.81 70.546 2.014ZM87.466 3.166H100.534V5.326H95.26V13.714H101.074V15.874H86.926V13.714H92.74V5.326H87.466V3.166ZM105.304 4.66L106.456 2.5C108.268 3.364 110.128 4.33 112.036 5.398L110.83 7.522C109.222 6.622 107.38 5.668 105.304 4.66ZM117.454 4.228L119.74 4.732C119.104 8.296 117.664 11.038 115.42 12.958C113.176 14.878 110.056 16.012 106.06 16.36L105.7 14.02C109.18 13.684 111.85 12.736 113.71 11.176C115.582 9.604 116.83 7.288 117.454 4.228ZM135.238 4.966L137.524 5.362C136.828 9.154 135.43 11.932 133.33 13.696C131.23 15.46 128.08 16.528 123.88 16.9L123.52 14.614C127.264 14.29 130 13.42 131.728 12.004C133.456 10.588 134.626 8.242 135.238 4.966ZM136.048 3.796L134.356 4.606C133.972 3.814 133.516 2.944 132.988 1.996L134.68 1.15C135.172 2.074 135.628 2.956 136.048 3.796ZM138.82 3.58L137.092 4.408C136.444 3.16 135.976 2.272 135.688 1.744L137.416 0.879999C137.968 1.888 138.436 2.788 138.82 3.58ZM123.232 6.694C124.804 6.958 126.784 7.342 129.172 7.846L128.722 9.97C126.574 9.514 124.6 9.136 122.8 8.836L123.232 6.694ZM124.078 2.32C125.986 2.632 128.026 3.01 130.198 3.454L129.748 5.614C127.576 5.17 125.536 4.792 123.628 4.48L124.078 2.32ZM142.006 5.506V3.166H153.994V5.506H142.006ZM140.746 15.874V13.534H155.254V15.874H140.746ZM159.034 5.02V2.914H173.614V5.02C173.266 6.196 172.66 7.318 171.796 8.386C170.944 9.442 169.942 10.3 168.79 10.96L167.386 9.106C169.282 7.966 170.5 6.604 171.04 5.02H159.034ZM163.714 6.46H166.126C166.126 8.56 165.964 10.258 165.64 11.554C165.328 12.85 164.824 13.906 164.128 14.722C163.432 15.526 162.442 16.228 161.158 16.828L159.916 14.902C161.392 14.206 162.394 13.282 162.922 12.13C163.45 10.966 163.714 9.076 163.714 6.46ZM181.354 4.174H183.64V17.926H176.134V16H181.354V4.174ZM34.996 33.004C35.868 32.892 36.54 32.552 37.012 31.984C37.484 31.416 37.72 30.648 37.72 29.68C37.72 28.848 37.464 28.148 36.952 27.58C36.448 27.004 35.788 26.66 34.972 26.548C34.78 28.068 34.552 29.344 34.288 30.376C34.032 31.4 33.744 32.18 33.424 32.716C33.112 33.252 32.792 33.628 32.464 33.844C32.144 34.052 31.776 34.156 31.36 34.156C30.712 34.156 30.116 33.784 29.572 33.04C29.028 32.296 28.756 31.388 28.756 30.316C28.756 28.764 29.284 27.504 30.34 26.536C31.396 25.568 32.776 25.084 34.48 25.084C35.856 25.084 36.992 25.516 37.888 26.38C38.792 27.244 39.244 28.344 39.244 29.68C39.244 31.072 38.888 32.188 38.176 33.028C37.472 33.868 36.52 34.34 35.32 34.444L34.996 33.004ZM33.388 26.62C32.42 26.804 31.66 27.224 31.108 27.88C30.556 28.536 30.28 29.348 30.28 30.316C30.28 30.924 30.404 31.464 30.652 31.936C30.9 32.408 31.136 32.644 31.36 32.644C31.472 32.644 31.588 32.592 31.708 32.488C31.828 32.376 31.96 32.176 32.104 31.888C32.256 31.6 32.404 31.236 32.548 30.796C32.692 30.356 32.836 29.776 32.98 29.056C33.132 28.336 33.268 27.524 33.388 26.62ZM50.656 29.344C48.952 29.344 47.336 29.436 45.808 29.62L45.712 28.276C47.28 28.092 48.928 28 50.656 28V29.344ZM50.752 32.884L50.932 34.24C50.076 34.4 49.232 34.48 48.4 34.48C47.296 34.48 46.412 34.28 45.748 33.88C45.092 33.472 44.764 32.952 44.764 32.32C44.764 31.704 45.164 31.084 45.964 30.46L47.056 31.156C46.744 31.42 46.536 31.624 46.432 31.768C46.328 31.904 46.276 32.036 46.276 32.164C46.276 32.444 46.464 32.676 46.84 32.86C47.224 33.036 47.744 33.124 48.4 33.124C49.112 33.124 49.896 33.044 50.752 32.884ZM41.2 27.04V25.684H43.108C43.22 25.044 43.304 24.56 43.36 24.232L44.884 24.364C44.788 24.956 44.712 25.396 44.656 25.684H48.844V27.04H44.392C43.856 29.712 43.176 32.264 42.352 34.696L40.84 34.348C41.656 31.956 42.32 29.52 42.832 27.04H41.2ZM60.616 26.392C61.44 26.728 62.084 27.236 62.548 27.916C63.012 28.588 63.244 29.364 63.244 30.244C63.244 31.524 62.908 32.544 62.236 33.304C61.564 34.056 60.608 34.516 59.368 34.684L58.996 33.28C59.884 33.168 60.56 32.856 61.024 32.344C61.488 31.832 61.72 31.132 61.72 30.244C61.72 29.716 61.584 29.244 61.312 28.828C61.04 28.412 60.652 28.088 60.148 27.856C59.396 29.968 58.56 31.556 57.64 32.62C56.72 33.676 55.828 34.204 54.964 34.204C54.332 34.204 53.804 33.928 53.38 33.376C52.964 32.816 52.756 32.036 52.756 31.036C52.756 30.22 52.928 29.472 53.272 28.792C53.616 28.104 54.096 27.528 54.712 27.064C54.56 26.48 54.388 25.78 54.196 24.964L55.636 24.676C55.796 25.348 55.932 25.904 56.044 26.344C56.716 26.088 57.448 25.96 58.24 25.96C58.544 25.96 58.864 25.98 59.2 26.02C59.36 25.492 59.52 24.896 59.68 24.232L61.12 24.544C61.04 24.872 60.872 25.488 60.616 26.392ZM58.708 27.496C58.604 27.488 58.448 27.484 58.24 27.484C57.576 27.484 56.976 27.588 56.44 27.796C56.696 28.708 56.984 29.636 57.304 30.58C57.8 29.724 58.268 28.696 58.708 27.496ZM56.284 31.996C55.852 30.828 55.476 29.704 55.156 28.624C54.516 29.264 54.196 30.068 54.196 31.036C54.196 31.572 54.284 31.988 54.46 32.284C54.644 32.572 54.864 32.716 55.12 32.716C55.456 32.716 55.844 32.476 56.284 31.996ZM70.996 33.004C71.868 32.892 72.54 32.552 73.012 31.984C73.484 31.416 73.72 30.648 73.72 29.68C73.72 28.848 73.464 28.148 72.952 27.58C72.448 27.004 71.788 26.66 70.972 26.548C70.78 28.068 70.552 29.344 70.288 30.376C70.032 31.4 69.744 32.18 69.424 32.716C69.112 33.252 68.792 33.628 68.464 33.844C68.144 34.052 67.776 34.156 67.36 34.156C66.712 34.156 66.116 33.784 65.572 33.04C65.028 32.296 64.756 31.388 64.756 30.316C64.756 28.764 65.284 27.504 66.34 26.536C67.396 25.568 68.776 25.084 70.48 25.084C71.856 25.084 72.992 25.516 73.888 26.38C74.792 27.244 75.244 28.344 75.244 29.68C75.244 31.072 74.888 32.188 74.176 33.028C73.472 33.868 72.52 34.34 71.32 34.444L70.996 33.004ZM69.388 26.62C68.42 26.804 67.66 27.224 67.108 27.88C66.556 28.536 66.28 29.348 66.28 30.316C66.28 30.924 66.404 31.464 66.652 31.936C66.9 32.408 67.136 32.644 67.36 32.644C67.472 32.644 67.588 32.592 67.708 32.488C67.828 32.376 67.96 32.176 68.104 31.888C68.256 31.6 68.404 31.236 68.548 30.796C68.692 30.356 68.836 29.776 68.98 29.056C69.132 28.336 69.268 27.524 69.388 26.62ZM79.156 31.684V32.116H84.844V31.684H79.156ZM79.156 30.388V30.808H84.844V30.388H79.156ZM79.156 29.512H84.844V29.092H79.156V29.512ZM78.652 27.172C78.548 27.548 78.452 27.832 78.364 28.024H79.6V27.172H78.652ZM82.144 27.172H81.076V28.024H82.672L81.832 27.712C81.96 27.528 82.064 27.348 82.144 27.172ZM83.716 27.172C83.628 27.492 83.508 27.776 83.356 28.024H84.664V27.172H83.716ZM83.92 26.044H87.556V27.172H86.14V28.024H86.476V33.136H84.892C85.908 33.464 86.792 33.8 87.544 34.144L86.836 35.272C85.74 34.736 84.452 34.24 82.972 33.784L83.26 33.136H80.74L81.04 33.676C80.072 34.284 78.736 34.792 77.032 35.2L76.468 34.024C77.524 33.768 78.476 33.472 79.324 33.136H79.156H77.524V29.308L76.456 28.216C77.136 27.376 77.476 26.196 77.476 24.676C79.148 24.628 80.608 24.468 81.856 24.196L82.228 25.372C81.252 25.564 80.136 25.704 78.88 25.792C78.88 25.816 78.876 25.856 78.868 25.912C78.86 25.968 78.856 26.012 78.856 26.044H82.192V27.052C82.424 26.484 82.54 25.692 82.54 24.676C84.204 24.628 85.66 24.468 86.908 24.196L87.292 25.372C86.316 25.564 85.2 25.704 83.944 25.792C83.944 25.824 83.94 25.868 83.932 25.924C83.924 25.98 83.92 26.02 83.92 26.044ZM90.256 27.376V28.072H92.296V27.376H90.256ZM90.256 26.344H92.296V25.648H90.256V26.344ZM97.744 27.376H95.584V28.072H97.744V27.376ZM97.744 26.344V25.648H95.584V26.344H97.744ZM90.256 35.056H88.72V24.436H93.64V29.14H90.256V35.056ZM94.24 29.14V24.436H99.28V33.064C99.28 33.392 99.272 33.652 99.256 33.844C99.248 34.028 99.216 34.2 99.16 34.36C99.112 34.528 99.052 34.648 98.98 34.72C98.908 34.792 98.792 34.852 98.632 34.9C98.48 34.956 98.312 34.988 98.128 34.996C97.952 35.012 97.708 35.02 97.396 35.02C97.02 35.02 96.488 35 95.8 34.96L95.728 33.736H92.824V34.3H91.384V29.92H96.616V33.688C96.776 33.696 96.952 33.7 97.144 33.7C97.432 33.7 97.604 33.676 97.66 33.628C97.716 33.572 97.744 33.408 97.744 33.136V29.14H94.24ZM95.176 31.036H92.824V32.644H95.176V31.036ZM107.728 32.032C108.36 31.584 108.884 31.052 109.3 30.436H105.988C106.436 31.02 107.016 31.552 107.728 32.032ZM101.824 35.044C101.68 35.044 101.3 35.024 100.684 34.984L100.612 33.7C101.148 33.74 101.48 33.76 101.608 33.76C101.696 33.76 101.748 33.736 101.764 33.688C101.78 33.64 101.788 33.476 101.788 33.196V31.732C101.452 31.812 101.068 31.896 100.636 31.984L100.54 30.58C100.812 30.532 101.228 30.444 101.788 30.316V27.496H100.552V26.176H101.788V24.244H103.324V26.176H104.344V27.496H103.324V29.908C103.692 29.796 103.984 29.7 104.2 29.62V29.14H104.86L104.02 28.18C104.516 27.82 104.848 27.448 105.016 27.064C105.192 26.672 105.28 26.072 105.28 25.264V24.52H109.744V27.304C109.744 27.4 109.756 27.456 109.78 27.472C109.804 27.488 109.896 27.496 110.056 27.496C110.248 27.496 110.364 27.436 110.404 27.316C110.444 27.196 110.488 26.784 110.536 26.08L111.736 26.248C111.712 26.616 111.696 26.892 111.688 27.076C111.68 27.252 111.652 27.452 111.604 27.676C111.564 27.9 111.532 28.052 111.508 28.132C111.484 28.212 111.42 28.308 111.316 28.42C111.22 28.524 111.136 28.588 111.064 28.612C111 28.636 110.868 28.664 110.668 28.696C110.476 28.728 110.304 28.744 110.152 28.744C110.008 28.744 109.776 28.744 109.456 28.744C108.912 28.744 108.564 28.7 108.412 28.612C108.268 28.524 108.196 28.328 108.196 28.024V25.816H106.744V25.984C106.736 27.352 106.228 28.404 105.22 29.14H110.944V30.436H110.908L110.944 30.46C110.472 31.372 109.844 32.148 109.06 32.788C109.852 33.18 110.724 33.5 111.676 33.748L111.148 35.032C109.9 34.736 108.752 34.292 107.704 33.7C106.752 34.228 105.568 34.676 104.152 35.044L103.576 33.724C104.64 33.5 105.568 33.2 106.36 32.824C105.688 32.304 105.128 31.74 104.68 31.132L105.712 30.436H104.392L104.464 30.94C104.072 31.076 103.692 31.2 103.324 31.312V33.076C103.324 33.564 103.312 33.924 103.288 34.156C103.264 34.388 103.192 34.576 103.072 34.72C102.96 34.872 102.816 34.964 102.64 34.996C102.464 35.028 102.192 35.044 101.824 35.044ZM119.14 33.172H120.292V32.476H119.14V33.172ZM118.384 28.372H121.048V27.7H118.384V28.372ZM118.384 29.356H116.956V26.668H122.596V29.356H118.384ZM116.38 27.304V28.624H115.12C115.52 29.32 115.844 29.9 116.092 30.364V29.8H123.364V33.1C123.364 33.444 123.36 33.708 123.352 33.892C123.344 34.076 123.316 34.252 123.268 34.42C123.228 34.588 123.18 34.704 123.124 34.768C123.076 34.84 122.984 34.9 122.848 34.948C122.712 35.004 122.572 35.036 122.428 35.044C122.284 35.052 122.076 35.056 121.804 35.056C121.62 35.056 121.256 35.036 120.712 34.996L120.7 34.156H119.14V34.6H117.928V31.456H121.456V33.724H121.6C121.744 33.724 121.828 33.7 121.852 33.652C121.876 33.604 121.888 33.436 121.888 33.148V31.024H117.496V35.08H116.092V31.696L115.624 32.008C115.512 31.752 115.336 31.368 115.096 30.856V35.116H113.656V31.756C113.448 32.396 113.196 32.956 112.9 33.436L112.228 31.924C112.916 30.788 113.388 29.688 113.644 28.624H112.504V27.304H113.656V26.02C113.048 26.092 112.732 26.128 112.708 26.128L112.576 24.88C113.768 24.784 114.952 24.556 116.128 24.196L116.368 24.928H118.96V24.076H120.556V24.928H123.484V26.236H115.996V25.54C115.668 25.636 115.368 25.716 115.096 25.78V27.304H116.38ZM124.756 26.644H126.724V24.604H128.284V26.644H131.644V24.604H133.276V26.644H135.244V28.084H133.276V28.756C133.276 30.676 132.832 32.08 131.944 32.968C131.056 33.848 129.544 34.38 127.408 34.564L127.108 33.124C128.884 32.948 130.084 32.56 130.708 31.96C131.332 31.352 131.644 30.284 131.644 28.756V28.084H128.284V30.52H126.724V28.084H124.756V26.644ZM137.032 29.2C138.728 28.968 140.376 28.472 141.976 27.712C143.584 26.944 144.928 26.02 146.008 24.94L146.992 26.068C146.048 27.004 144.892 27.844 143.524 28.588V34.6H141.796V29.416C140.316 30.04 138.812 30.46 137.284 30.676L137.032 29.2ZM150.724 24.724H152.404V28.084C154.484 28.588 156.66 29.256 158.932 30.088L158.428 31.6C156.428 30.856 154.42 30.232 152.404 29.728V34.636H150.724V24.724Z" fill="white"/>
</g>
<defs>
<filter id="filter0_d" x="0.360001" y="0.880001" width="187.28" height="42.392" filterUnits="userSpaceOnUse" color-interpolation-filters="sRGB">
<feFlood flood-opacity="0" result="BackgroundImageFix"/>
<feColorMatrix in="SourceAlpha" type="matrix" values="0 0 0 0 0 0 0 0 0 0 0 0 0 0 0 0 0 0 127 0"/>
<feOffset dy="4"/>
<feGaussianBlur stdDeviation="2"/>
<feColorMatrix type="matrix" values="0 0 0 0 0 0 0 0 0 0 0 0 0 0 0 0 0 0 0.25 0"/>
<feBlend mode="normal" in2="BackgroundImageFix" result="effect1_dropShadow"/>
<feBlend mode="normal" in="SourceGraphic" in2="effect1_dropShadow" result="shape"/>
</filter>
</defs>
</svg>
